<?xml version="1.0"?>
<svg xmlns="http://www.w3.org/2000/svg" id="Capa_1" enable-background="new 0 0 512 512" height="512px" viewBox="0 0 512 512" width="512px"><g><g><g><g><path d="m436.613 207.239c-2.125 0-4.236-.676-6-2l-38.698-29.017h-271.83l-38.697 29.018c-3.029 2.272-7.082 2.638-10.472.944-3.388-1.694-5.527-5.157-5.527-8.944v-21.017h-12.069c-11.33 0-20.547-9.218-20.547-20.547v-109.393c0-11.332 9.219-20.551 20.551-20.551h405.353c11.331 0 20.551 9.219 20.551 20.551v109.393c0 11.33-9.217 20.547-20.547 20.547h-12.068v21.017c0 3.788-2.14 7.25-5.527 8.944-1.417.707-2.949 1.055-4.473 1.055zm-319.861-51.016h278.496c2.164 0 4.269.702 5.999 1.999l25.365 19.02v-11.019c0-5.523 4.477-10 10-10h22.068c.302 0 .547-.246.547-.547v-109.393c0-.304-.247-.551-.551-.551h-405.352c-.304 0-.551.247-.551.551v109.393c0 .302.246.547.547.547h22.068c5.523 0 10 4.477 10 10v11.019l25.364-19.02c1.731-1.298 3.836-1.999 6-1.999z" fill="#3E72AF"/></g></g><g><g><g><path d="m407.513 84.482h-303.026c-5.523 0-10-4.477-10-10s4.477-10 10-10h303.026c5.523 0 10 4.477 10 10s-4.477 10-10 10z" fill="#3E72AF"/></g></g><g><g><path d="m407.513 131.489h-36.019c-5.523 0-10-4.477-10-10s4.477-10 10-10h36.019c5.523 0 10 4.477 10 10s-4.477 10-10 10z" fill="#3E72AF"/></g></g><g><g><path d="m321.49 131.49c-4.237 0-8.098-2.788-9.46-6.789-1.328-3.903-.058-8.323 3.124-10.94 3.274-2.693 8.017-3 11.619-.767 3.493 2.165 5.337 6.416 4.527 10.446-.927 4.617-5.093 8.05-9.81 8.05z" fill="#3E72AF"/></g></g><g><g><path d="m272.494 131.489h-168.007c-5.523 0-10-4.477-10-10s4.477-10 10-10h168.007c5.523 0 10 4.477 10 10s-4.477 10-10 10z" fill="#3E72AF"/></g></g></g></g><g><g><g><g><path d="m256 372.25c-34.791 0-63.096-28.305-63.096-63.096s28.305-63.096 63.096-63.096 63.096 28.305 63.096 63.096-28.305 63.096-63.096 63.096zm0-106.192c-23.763 0-43.096 19.332-43.096 43.096 0 23.763 19.333 43.096 43.096 43.096s43.096-19.333 43.096-43.096-19.333-43.096-43.096-43.096z" fill="#3E72AF"/></g></g><g><g><g><path d="m320.752 486.268h-129.504c-5.523 0-10-4.477-10-10v-65.948c0-15.275 12.427-27.702 27.702-27.702h94.102c15.275 0 27.702 12.427 27.702 27.702v65.948c-.002 5.523-4.479 10-10.002 10zm-119.504-20h109.505v-55.948c0-4.247-3.455-7.702-7.702-7.702h-94.102c-4.247 0-7.702 3.455-7.702 7.702v55.948z" fill="#3E72AF"/></g></g></g></g><g><g><g><path d="m74.752 372.25c-34.791 0-63.096-28.305-63.096-63.096s28.305-63.096 63.096-63.096 63.096 28.305 63.096 63.096-28.304 63.096-63.096 63.096zm0-106.192c-23.763 0-43.096 19.332-43.096 43.096 0 23.763 19.333 43.096 43.096 43.096s43.096-19.333 43.096-43.096-19.332-43.096-43.096-43.096z" fill="#3E72AF"/></g></g><g><g><g><path d="m139.505 486.268h-129.505c-5.523 0-10-4.477-10-10v-65.948c0-15.275 12.427-27.702 27.701-27.702h94.103c15.274 0 27.701 12.427 27.701 27.702v65.948c0 5.523-4.477 10-10 10zm-119.505-20h109.505v-55.948c0-4.247-3.455-7.702-7.701-7.702h-94.103c-4.247 0-7.701 3.455-7.701 7.702z" fill="#3E72AF"/></g></g></g></g><g><g><g><path d="m437.248 372.25c-34.791 0-63.096-28.305-63.096-63.096s28.305-63.096 63.096-63.096 63.096 28.305 63.096 63.096-28.305 63.096-63.096 63.096zm0-106.192c-23.763 0-43.096 19.332-43.096 43.096 0 23.763 19.333 43.096 43.096 43.096s43.096-19.333 43.096-43.096c-.001-23.763-19.333-43.096-43.096-43.096z" fill="#3E72AF"/></g></g><g><g><g><path d="m502 486.268h-129.505c-5.523 0-10-4.477-10-10v-65.948c0-15.275 12.427-27.702 27.701-27.702h94.103c15.274 0 27.701 12.427 27.701 27.702v65.948c0 5.523-4.477 10-10 10zm-119.505-20h109.505v-55.948c0-4.247-3.455-7.702-7.701-7.702h-94.103c-4.247 0-7.701 3.455-7.701 7.702z" fill="#3E72AF"/></g></g></g></g></g></g></svg>
