<?xml version="1.0"?>
<svg xmlns="http://www.w3.org/2000/svg" xmlns:xlink="http://www.w3.org/1999/xlink" xmlns:svgjs="http://svgjs.com/svgjs" version="1.1" width="512" height="512" x="0" y="0" viewBox="0 0 512 512" style="enable-background:new 0 0 512 512" xml:space="preserve" class=""><g><g xmlns="http://www.w3.org/2000/svg"><g><path d="m508.046 455.014-7.304-7.305c-2.929-2.93-7.678-2.929-10.606-.001-2.93 2.929-2.93 7.678-.001 10.606l6.243 6.244-31.818 31.819-54.094-54.093 31.819-31.819 25.236 25.236c2.93 2.928 7.678 2.928 10.607 0 2.929-2.93 2.929-7.678 0-10.607l-30.526-30.525c-.005-.005-.009-.01-.013-.015l-21.213-21.213c-.006-.006-.012-.01-.018-.016l-18.721-18.721c-2.55-2.551-5.94-3.956-9.547-3.956s-6.997 1.405-9.546 3.954l-1.061 1.062-26.837-26.844c19.182-23.966 33.036-52.367 39.76-83.398h52.845c4.143 0 7.5-3.357 7.5-7.5s-3.357-7.5-7.5-7.5h-50.186c.661-4.77 1.155-9.592 1.476-14.461h84.459c4.143 0 7.5-3.357 7.5-7.5s-3.357-7.5-7.5-7.5h-84.016c-.036-4.853-.237-9.675-.605-14.462h48.873c4.143 0 7.5-3.357 7.5-7.5s-3.357-7.5-7.5-7.5h-50.586c-5.24-34.479-19.253-66.731-41.304-94.589-2.571-3.247-7.287-3.795-10.536-1.226-3.247 2.571-3.796 7.288-1.226 10.536 26.43 33.389 40.4 73.598 40.4 116.28 0 103.388-84.112 187.5-187.5 187.5s-187.5-84.112-187.5-187.5 84.112-187.5 187.5-187.5c46.738 0 91.511 17.298 126.069 48.707 3.064 2.788 7.81 2.56 10.594-.505 2.786-3.065 2.56-7.809-.506-10.595-37.324-33.924-85.679-52.607-136.157-52.607-111.659 0-202.5 90.841-202.5 202.5 0 98.582 70.814 180.921 164.243 198.859v50.599c0 4.143 3.357 7.5 7.5 7.5s7.5-3.357 7.5-7.5v-48.301c4.773.548 9.595.932 14.462 1.141v82.43c0 4.143 3.357 7.5 7.5 7.5s7.5-3.357 7.5-7.5v-82.332c4.864-.147 9.688-.457 14.462-.943v48.005c0 4.143 3.357 7.5 7.5 7.5s7.5-3.357 7.5-7.5v-50.104c33.863-6.042 64.83-20.538 90.654-41.208l26.844 26.838-1.06 1.06c-2.551 2.55-3.956 5.94-3.956 9.547s1.405 6.997 3.954 9.546l18.728 18.727c.004.004.007.008.011.012l21.213 21.213c.004.004.01.008.014.013l60.443 60.442c2.55 2.552 5.94 3.956 9.547 3.956s6.996-1.404 9.547-3.954l33.94-33.94c2.55-2.551 3.954-5.94 3.954-9.547s-1.404-6.997-3.954-9.545zm-157.225-114.806 26.054 26.06-10.606 10.606-26.06-26.054c3.666-3.405 7.206-6.945 10.612-10.612zm49.038 91.47-10.607-10.606 31.819-31.819 10.606 10.607zm-1.768-65.407 12.374 12.374-31.819 31.819-12.374-12.374z" fill="#3e72af" data-original="#000000" style="" class=""/><path d="m98.056 339.792c30.039 22.579 66.125 34.754 104.444 35.208 95.117 0 172.5-77.383 172.5-172.5s-77.383-172.5-172.5-172.5c-45.903 0-89.078 17.967-121.569 50.591-32.354 32.485-50.441 75.752-50.931 121.829-.45 42.419 14.963 83.191 43.399 114.805 2.77 3.079 7.512 3.331 10.592.561s3.331-7.513.561-10.592c-25.916-28.812-39.963-65.965-39.552-104.614.447-42.143 16.982-81.707 46.559-111.403 29.656-29.778 69.055-46.177 110.941-46.177 86.846 0 157.5 70.654 157.5 157.5s-70.654 157.5-157.411 157.501c-35.019-.416-68.049-11.551-95.521-32.199-3.309-2.491-8.013-1.822-10.501 1.489-2.49 3.311-1.823 8.013 1.489 10.501z" fill="#3e72af" data-original="#000000" style="" class=""/><path d="m231 68.5h-52c-6.341 0-11.5 5.159-11.5 11.5v26.5h-48.5c-6.341 0-11.5 5.159-11.5 11.5v80.5h-10.038c-4.143 0-7.5 3.357-7.5 7.5s3.357 7.5 7.5 7.5h215.076c4.143 0 7.5-3.357 7.5-7.5s-3.357-7.5-7.5-7.5h-10.038v-42.5c0-6.341-5.159-11.5-11.5-11.5h-48.5v-64.5c0-6.341-5.159-11.5-11.5-11.5zm-108.5 53h45v77h-45zm60-38h45v115h-45zm105 76v39h-45v-39z" fill="#3e72af" data-original="#000000" style="" class=""/><path d="m289 277.053h-35.309l-16.04-41.003c-1.134-2.897-3.912-4.772-7.051-4.768-3.112.028-5.884 1.975-6.966 4.893l-21.92 59.109-15.32-43.423c-.98-2.78-3.498-4.728-6.436-4.978-2.934-.254-5.748 1.244-7.186 3.816l-14.712 26.353h-35.216c-4.143 0-7.5 3.357-7.5 7.5s3.357 7.5 7.5 7.5h39.618c2.718 0 5.224-1.471 6.549-3.844l8.763-15.695 16.691 47.31c1.051 2.979 3.854 4.979 7.013 5.005h.061c3.133 0 5.94-1.95 7.031-4.893l22.283-60.088 10.733 27.438c1.125 2.875 3.896 4.768 6.984 4.768h40.43c4.143 0 7.5-3.357 7.5-7.5s-3.357-7.5-7.5-7.5z" fill="#3e72af" data-original="#000000" style="" class=""/></g></g></g></svg>
