<?xml version="1.0"?>
<svg xmlns="http://www.w3.org/2000/svg" xmlns:xlink="http://www.w3.org/1999/xlink" xmlns:svgjs="http://svgjs.com/svgjs" version="1.1" width="512" height="512" x="0" y="0" viewBox="0 0 512 512" style="enable-background:new 0 0 512 512" xml:space="preserve" class=""><g><g xmlns="http://www.w3.org/2000/svg"><g><g><g><path d="m151.22 418.35c-4.231 0-8.113-2.79-9.47-6.794-1.358-4.006.018-8.576 3.384-11.147 3.234-2.47 7.732-2.712 11.225-.637 3.581 2.127 5.486 6.448 4.661 10.528-.933 4.611-5.085 8.05-9.8 8.05z" fill="#3e72af" data-original="#000000" style="" class=""/></g></g><g><g><path d="m360.78 418.35c-4.238 0-8.101-2.789-9.461-6.794-1.358-3.999.011-8.577 3.374-11.147 3.232-2.47 7.736-2.711 11.226-.637 3.586 2.131 5.491 6.439 4.671 10.528-.925 4.61-5.104 8.05-9.81 8.05z" fill="#3e72af" data-original="#000000" style="" class=""/></g></g><g><g><path d="m315.794 418.345h-119.588c-5.523 0-10-4.478-10-10s4.477-10 10-10h119.588c5.522 0 10 4.478 10 10s-4.478 10-10 10z" fill="#3e72af" data-original="#000000" style="" class=""/></g></g></g><g><g><g><path d="m256 377.989c-2.037 0-4.074-.621-5.814-1.863-1.516-1.083-37.53-26.974-74.075-66.859-21.604-23.579-38.854-47.154-51.273-70.07-15.839-29.227-23.869-57.544-23.869-84.165 0-85.485 69.547-155.032 155.031-155.032s155.031 69.547 155.031 155.031c0 47.58-25.278 99.366-75.134 153.92-36.536 39.978-72.539 66.063-74.054 67.153-1.744 1.256-3.794 1.885-5.843 1.885zm0-357.989c-74.456 0-135.031 60.575-135.031 135.031 0 90.706 108.399 179.907 135.01 200.432 26.596-20.649 135.053-110.401 135.053-200.432-.001-74.456-60.576-135.031-135.032-135.031z" fill="#3e72af" data-original="#000000" style="" class=""/></g></g><g><g><g><g><g><path d="m256 43.058c-60.273 0-109.309 49.035-109.309 109.309 0 38.935 20.967 75.229 54.719 94.719 16.529 9.544 35.405 14.589 54.59 14.589s38.063-5.045 54.59-14.589c33.752-19.49 54.719-55.784 54.719-94.719 0-60.274-49.036-109.309-109.309-109.309zm39.589 189.383c-12.242 6.055-25.814 9.232-39.589 9.232-13.773 0-27.346-3.178-39.589-9.233v-21.043c0-1.961 1.595-3.556 3.556-3.556h72.066c1.961 0 3.556 1.595 3.556 3.556zm20-13.573v-7.47c0-12.988-10.567-23.556-23.556-23.556h-72.066c-12.988 0-23.556 10.567-23.556 23.556v7.47c-18.656-16.774-29.72-40.942-29.72-66.502 0-49.245 40.063-89.309 89.309-89.309s89.309 40.064 89.309 89.309c0 25.56-11.064 49.728-29.72 66.502z" fill="#3e72af" data-original="#000000" style="" class=""/><path d="m256 80.256c-27.936 0-50.664 22.728-50.664 50.664s22.728 50.663 50.664 50.663 50.664-22.727 50.664-50.663c0-27.937-22.728-50.664-50.664-50.664zm0 81.327c-16.908 0-30.664-13.756-30.664-30.663 0-16.908 13.756-30.664 30.664-30.664s30.664 13.756 30.664 30.664c0 16.907-13.756 30.663-30.664 30.663z" fill="#3e72af" data-original="#000000" style="" class=""/></g></g></g></g></g></g><g><g><g><path d="m74.753 417.994c-34.792 0-63.097-28.305-63.097-63.096s28.305-63.096 63.097-63.096c34.791 0 63.096 28.305 63.096 63.096 0 34.792-28.305 63.096-63.096 63.096zm0-106.191c-23.764 0-43.097 19.333-43.097 43.096s19.333 43.096 43.097 43.096c23.763 0 43.096-19.333 43.096-43.096s-19.333-43.096-43.096-43.096z" fill="#3e72af" data-original="#000000" style="" class=""/></g></g><g><g><g><path d="m139.505 512h-129.505c-5.523 0-10-4.478-10-10v-45.935c0-15.275 12.427-27.701 27.701-27.701h94.103c15.274 0 27.701 12.427 27.701 27.701v45.935c0 5.522-4.478 10-10 10zm-119.505-20h109.505v-35.935c0-4.246-3.455-7.701-7.701-7.701h-94.103c-4.246 0-7.701 3.455-7.701 7.701z" fill="#3e72af" data-original="#000000" style="" class=""/></g></g></g></g><g><g><g><path d="m437.248 417.994c-34.792 0-63.097-28.305-63.097-63.096s28.305-63.096 63.097-63.096c34.791 0 63.096 28.305 63.096 63.096 0 34.792-28.305 63.096-63.096 63.096zm0-106.191c-23.764 0-43.097 19.333-43.097 43.096s19.333 43.096 43.097 43.096c23.763 0 43.096-19.333 43.096-43.096s-19.333-43.096-43.096-43.096z" fill="#3e72af" data-original="#000000" style="" class=""/></g></g><g><g><g><path d="m502 512h-129.505c-5.522 0-10-4.478-10-10v-45.935c0-15.275 12.427-27.701 27.701-27.701h94.103c15.274 0 27.701 12.427 27.701 27.701v45.935c0 5.522-4.478 10-10 10zm-119.505-20h109.505v-35.935c0-4.246-3.455-7.701-7.701-7.701h-94.103c-4.246 0-7.701 3.455-7.701 7.701z" fill="#3e72af" data-original="#000000" style="" class=""/></g></g></g></g></g></g></svg>
