<svg id="Layer_5" enable-background="new 0 0 64 64" height="512" viewBox="0 0 64 64" width="512" xmlns="http://www.w3.org/2000/svg"><g><path d="m58 45h-15v-23.214c.364-.187.718-.388 1.057-.613l3.577 4.471c-1.626 1.629-2.634 3.877-2.634 6.356 0 4.963 4.037 9 9 9s9-4.037 9-9c0-4.962-4.037-9-9-9-1.765 0-3.408.518-4.799 1.4l-3.585-4.481c1.856-1.785 3.088-4.21 3.334-6.919h2.432 1l2 4h8.236l-2.5-5 2.5-5h-8.236l-2 4h-1-2.432c-.508-5.598-5.222-10-10.95-10-2.679 0-5.134.965-7.044 2.562-.215-1.446-1.452-2.562-2.956-2.562h-12c-1.302 0-2.402.839-2.816 2h-7.184c-2.757 0-5 2.243-5 5v50c0 2.757 2.243 5 5 5h32c2.757 0 5-2.243 5-5v-3h15c2.757 0 5-2.243 5-5s-2.243-5-5-5zm3-13c0 3.859-3.141 7-7 7s-7-3.141-7-7c0-3.86 3.141-7 7-7s7 3.14 7 7zm-5.382-17-1-2h2.382 1.382l1 2zm0-6h3.764l-1 2h-1.382-2.382zm-42.434 0c.414 1.161 1.514 2 2.816 2h11.051c-.03.33-.051.662-.051 1 0 3.203 1.385 6.082 3.577 8.094l-1.525 2.001c-2.034-1.32-4.452-2.095-7.052-2.095-7.168 0-13 5.832-13 13s5.832 13 13 13 13-5.832 13-13c0-3.851-1.693-7.306-4.362-9.688l1.527-2.004c1.427.898 3.069 1.481 4.835 1.641v22.051h-5.182l-7.233 2.713c-.948.356-1.585 1.275-1.585 2.287s.637 1.931 1.585 2.288l7.233 2.712h5.182v2h-30v-48zm13.816 29h-2v-8h2zm-4 0h-2v-6-4h2zm-4 0h-2v-4h2zm11.479 2c-2.019 2.441-5.07 4-8.479 4s-6.459-1.559-8.479-4zm1.307-2h-2.786v-10h-4v-2h-6v6h-4v6h-2.786c-.77-1.502-1.214-3.199-1.214-5 0-6.065 4.935-11 11-11s11 4.935 11 11c0 1.801-.444 3.498-1.214 5zm-6.498 12.416c-.172-.065-.288-.232-.288-.416s.116-.351.288-.415l5.712-2.142v5.114zm7.712 2.584v-2h20v2zm20-4h-20v-2h20zm-12-4h-2v-22.051c.688-.062 1.355-.192 2-.376zm-3-42c4.625 0 8.442 3.507 8.941 8h-4.042c-.465-2.279-2.485-4-4.899-4-2.757 0-5 2.243-5 5s2.243 5 5 5c2.414 0 4.434-1.721 4.899-4h4.042c-.499 4.493-4.316 8-8.941 8-4.963 0-9-4.038-9-9s4.037-9 9-9zm2.816 10c-.414 1.161-1.514 2-2.816 2-1.654 0-3-1.346-3-3s1.346-3 3-3c1.302 0 2.402.839 2.816 2h-3.816v2zm-25.816-9c0-.551.448-1 1-1h12c.552 0 1 .449 1 1v1.695c-.698.993-1.232 2.105-1.572 3.3l-11.428.005c-.552 0-1-.449-1-1zm26 54c0 1.654-1.346 3-3 3h-32c-1.654 0-3-1.346-3-3v-50c0-1.654 1.346-3 3-3h7v2h-6c-1.103 0-2 .897-2 2v48c0 1.103.897 2 2 2h30c1.103 0 2-.897 2-2v-2h2zm17-5h-3v-6h3c1.654 0 3 1.346 3 3s-1.346 3-3 3z"/><path d="m49 34.382c0 1.443 1.175 2.618 2.618 2.618.404 0 .81-.096 1.171-.276l4.765-2.382c.891-.447 1.446-1.345 1.446-2.342 0-.998-.555-1.896-1.447-2.342l-4.764-2.382c-.361-.18-.767-.276-1.171-.276-1.443 0-2.618 1.174-2.618 2.618zm2-4.764c0-.341.277-.618.618-.618.096 0 .191.022.276.065l4.764 2.382c.211.106.342.317.342.553 0 .235-.131.447-.342.553l-4.764 2.382c-.386.198-.894-.117-.894-.553z"/><path d="m9 49h12v2h-12z"/><path d="m9 53h12v2h-12z"/><path d="m9 13h2v2h-2z"/><path d="m13 13h12v2h-12z"/><path d="m9 17h2v2h-2z"/><path d="m13 17h12v2h-12z"/></g></svg>