<?xml version="1.0"?>
<svg xmlns="http://www.w3.org/2000/svg" xmlns:xlink="http://www.w3.org/1999/xlink" xmlns:svgjs="http://svgjs.com/svgjs" version="1.1" width="512" height="512" x="0" y="0" viewBox="0 0 512 512" style="enable-background:new 0 0 512 512" xml:space="preserve" class=""><g><g xmlns="http://www.w3.org/2000/svg"><path d="m105.02 252.348v-34.059c0-4.143-3.357-7.5-7.5-7.5s-7.5 3.357-7.5 7.5v34.059c0 4.143 3.357 7.5 7.5 7.5s7.5-3.358 7.5-7.5zm380.99 22.502h-92.51v-82.665c6.568 2.325 13.625 3.604 20.98 3.604 34.434 0 63.123-28.296 63.123-63.123 0-11.608-3.18-22.959-9.196-32.824-2.157-3.536-6.773-4.654-10.308-2.499-3.537 2.156-4.655 6.771-2.499 10.309 4.581 7.513 7.003 16.162 7.003 25.015 0 10.025-3.085 19.341-8.351 27.057-3.428-7.305-8.83-13.613-15.591-18.108 1.619-3.442 2.53-7.281 2.53-11.331v-7.327c0-14.729-11.982-26.711-26.711-26.711-14.728 0-26.71 11.982-26.71 26.711v7.327c0 4.043.908 7.876 2.522 11.315-1.927 1.274-3.762 2.694-5.481 4.273-4.3 3.942-7.716 8.644-10.128 13.815-5.25-7.708-8.325-17.012-8.325-27.021 0-26.534 21.588-48.122 48.122-48.122 6.319 0 12.458 1.203 18.246 3.577 3.832 1.57 8.214-.263 9.785-4.094 1.571-3.833-.262-8.214-4.094-9.785-7.604-3.117-15.657-4.698-23.938-4.698-7.354 0-14.412 1.277-20.98 3.599v-35.644c.001-20.678-16.821-37.5-37.499-37.5h-200c-20.678 0-37.5 16.822-37.5 37.5v35.643c-6.569-2.322-13.627-3.599-20.98-3.599-34.807 0-63.123 28.316-63.123 63.122 0 34.789 28.71 63.123 63.123 63.123 7.355 0 14.413-1.279 20.98-3.604v82.665h-92.51c-14.331 0-25.99 11.659-25.99 25.99v81.851c0 14.33 11.659 25.989 25.99 25.989h92.51v65.82c0 20.678 16.822 37.5 37.5 37.5h200c20.678 0 37.5-16.822 37.5-37.5v-65.82h92.51c14.331 0 25.99-11.659 25.99-25.989v-81.851c0-14.331-11.659-25.99-25.99-25.99zm-83.239-151.893c0-6.457 5.253-11.711 11.71-11.711s11.711 5.254 11.711 11.711v7.327c0 6.457-5.254 11.711-11.711 11.711s-11.71-5.254-11.71-11.711zm-7.818 33.968c1.676-1.54 3.524-2.835 5.49-3.929 4.082 2.532 8.89 3.999 14.037 3.999 5.156 0 9.972-1.472 14.058-4.012 7.073 3.96 12.233 10.805 14.087 18.681-7.921 5.733-17.642 9.125-28.146 9.125-10.507 0-20.232-3.395-28.155-9.132 1.31-5.627 4.292-10.758 8.629-14.732zm-192.419-141.925h101.19v22.128c0 1.379-1.121 2.5-2.5 2.5h-96.19c-1.379 0-2.5-1.121-2.5-2.5zm-69.034 22.5c0-12.406 10.094-22.5 22.5-22.5h31.534v22.128c0 9.649 7.851 17.5 17.5 17.5h96.19c9.649 0 17.5-7.851 17.5-17.5v-22.128h37.276c12.406 0 22.5 10.094 22.5 22.5v43.346c-16.388 11.413-27.142 30.379-27.142 51.82 0 21.413 10.614 40.219 27.142 51.817v90.366h-35.55c-14.331 0-25.99 11.659-25.99 25.99v9.106h-50.279c-4.143 0-7.5 3.357-7.5 7.5s3.357 7.5 7.5 7.5h74.992c4.136 0 7.5 3.364 7.5 7.5v68.675c0 .02-.003.039-.003.058s.003.039.003.058v41.395c0 4.136-3.364 7.5-7.5 7.5h-4.838l-41.32-46.348c-2.805-3.142-6.829-4.957-11.041-4.981h-.084c-4.176 0-8.18 1.764-10.99 4.84l-13.943 15.221-18.508-25.947c-2.771-3.884-7.272-6.221-12.042-6.252h-.097c-4.734 0-9.225 2.273-12.025 6.095l-42.058 57.373h-4.399c-4.136 0-7.5-3.364-7.5-7.5v-41.395c0-.02.003-.039.003-.058s-.003-.039-.003-.058v-68.675c0-4.136 3.364-7.5 7.5-7.5h61.354c4.143 0 7.5-3.357 7.5-7.5s-3.357-7.5-7.5-7.5h-36.642v-9.106c0-14.331-11.659-25.99-25.99-25.99h-35.55v-90.366c16.596-11.613 27.142-30.319 27.142-51.817 0-21.44-10.754-40.406-27.142-51.82zm183.235 412.63h-34.978l-13.396-18.781 16.031-17.499zm-53.4.003h-70.01l35.483-48.403zm-205.612-290.444c-5.251-7.709-8.326-17.012-8.326-27.023 0-26.534 21.588-48.122 48.123-48.122 26.534 0 48.122 21.588 48.122 48.122 0 10.025-3.085 19.341-8.35 27.056-3.428-7.305-8.83-13.612-15.592-18.108 1.619-3.442 2.529-7.281 2.529-11.33v-7.327c0-14.729-11.982-26.711-26.71-26.711-14.729 0-26.711 11.982-26.711 26.711v7.327c0 4.043.908 7.877 2.523 11.316-1.927 1.274-3.761 2.694-5.48 4.272-4.3 3.942-7.716 8.645-10.128 13.817zm51.506-36.732v7.327c0 6.457-5.253 11.711-11.71 11.711s-11.711-5.254-11.711-11.711v-7.327c0-6.457 5.254-11.711 11.711-11.711s11.71 5.254 11.71 11.711zm-11.709 57.832c-10.507 0-20.231-3.395-28.154-9.131 1.308-5.628 4.291-10.759 8.628-14.733 1.676-1.539 3.523-2.835 5.49-3.928 4.082 2.532 8.89 3.999 14.037 3.999 5.155 0 9.972-1.472 14.058-4.013 7.073 3.96 12.234 10.805 14.087 18.681-7.922 5.732-17.643 9.125-28.146 9.125zm-71.53 212.891c-6.06 0-10.99-4.93-10.99-10.989v-81.851c0-6.06 4.931-10.99 10.99-10.99h143.06c6.06 0 10.99 4.931 10.99 10.99v9.106h-9.713c-12.406 0-22.5 10.094-22.5 22.5v61.233h-121.837zm352.51 80.82c0 12.406-10.094 22.5-22.5 22.5h-200c-12.406 0-22.5-10.094-22.5-22.5v-65.82h14.327v33.953c0 12.406 10.094 22.5 22.5 22.5h171.346c12.406 0 22.5-10.094 22.5-22.5v-33.953h14.327zm118.5-91.81c0 6.06-4.931 10.989-10.99 10.989h-121.837v-61.233c0-12.406-10.094-22.5-22.5-22.5h-9.713v-9.106c0-6.06 4.931-10.99 10.99-10.99h143.06c6.06 0 10.99 4.931 10.99 10.99zm-90.02-164.401v34.059c0 4.143 3.357 7.5 7.5 7.5s7.5-3.357 7.5-7.5v-34.059c0-4.143-3.357-7.5-7.5-7.5s-7.5 3.357-7.5 7.5zm-274.332 114.652-48.737-28.021c-3.145-1.809-7.05-1.806-10.192.012-3.137 1.814-5.085 5.19-5.085 8.811v56.043c0 3.62 1.948 6.996 5.085 8.811 3.141 1.817 7.047 1.822 10.19.013l48.741-28.022c3.149-1.813 5.105-5.192 5.105-8.822s-1.955-7.011-5.107-8.825zm-49.014 28.525v-39.402l34.267 19.701zm219.466 25.223c13.785 0 25-11.215 25-25s-11.215-25-25-25-25 11.215-25 25 11.214 25 25 25zm0-35c5.514 0 10 4.486 10 10s-4.486 10-10 10-10-4.486-10-10 4.486-10 10-10zm-47.1-129.38c41.531 0 76.341-34.258 76.341-76.34 0-42.095-34.246-76.341-76.341-76.341s-76.341 34.246-76.341 76.341c0 42.102 34.818 76.34 76.341 76.34zm0-15c-13.81 0-26.565-4.59-36.829-12.321 1.552-7.774 5.532-14.879 11.458-20.31 2.439-2.237 5.138-4.117 8.048-5.633 4.963 3.314 10.92 5.251 17.323 5.251 6.396 0 12.347-1.933 17.307-5.241 10.028 5.245 17.27 14.874 19.504 25.947-10.26 7.722-23.009 12.307-36.811 12.307zm-16.275-64.288v-9.068c0-8.975 7.301-16.276 16.275-16.276s16.275 7.302 16.275 16.276v9.068c0 8.975-7.301 16.275-16.275 16.275s-16.275-7.301-16.275-16.275zm16.275-58.393c33.823 0 61.341 27.518 61.341 61.341 0 13.914-4.664 26.755-12.501 37.058-4.17-10.424-11.629-19.385-21.219-25.357 2.329-4.373 3.654-9.359 3.654-14.649v-9.068c0-17.246-14.03-31.276-31.275-31.276s-31.275 14.03-31.275 31.276v9.068c0 5.284 1.322 10.263 3.646 14.633-2.796 1.731-5.43 3.723-7.878 5.968-5.923 5.429-10.455 12.06-13.356 19.374-7.822-10.298-12.477-23.127-12.477-37.027-.001-33.823 27.517-61.341 61.34-61.341zm193.61 248.313-48.737-28.021c-3.146-1.809-7.051-1.806-10.192.012-3.137 1.814-5.085 5.19-5.085 8.811v56.043c0 3.62 1.948 6.996 5.085 8.811 3.141 1.817 7.047 1.822 10.19.013l48.741-28.022c3.149-1.813 5.105-5.192 5.105-8.822s-1.955-7.011-5.107-8.825zm-49.014 28.525v-39.402l34.267 19.701zm-144.596-124.157c-4.143 0-7.5 3.357-7.5 7.5v42.638c0 4.143 3.357 7.5 7.5 7.5s7.5-3.357 7.5-7.5v-42.638c0-4.143-3.357-7.5-7.5-7.5z" fill="#3e72af" data-original="#000000" style="" class=""/></g></g></svg>
