<?xml version="1.0"?>
<svg xmlns="http://www.w3.org/2000/svg" xmlns:xlink="http://www.w3.org/1999/xlink" xmlns:svgjs="http://svgjs.com/svgjs" version="1.1" width="512" height="512" x="0" y="0" viewBox="0 0 511.997 511.997" style="enable-background:new 0 0 512 512" xml:space="preserve" class=""><g><g xmlns="http://www.w3.org/2000/svg"><g><path clip-rule="evenodd" d="m255.984 442.922c-106.351 0-192.578-86.229-192.578-192.611s86.227-192.612 192.578-192.612c106.38 0 192.606 86.229 192.606 192.611s-86.226 192.612-192.606 192.612zm43.992 43.567c130.445-24.293 216.473-149.724 192.181-280.172-24.292-130.42-149.72-216.478-280.136-192.186-115.45 21.515-196.121 122.257-196.291 235.556v.709c.028 14.485 1.361 29.168 4.11 43.908 5.811 31.266 17.461 59.98 33.589 85.236-3.77 39.854-11.962 75.315-37.699 119.563h74.293c29.309-4.252 58.023-12.897 80.5-24.264 39.911 15.25 84.384 20.041 129.453 11.65z" fill="#d9e9fb" fill-rule="evenodd" data-original="#ff7d97" style="" class=""/></g><g><path clip-rule="evenodd" d="m255.984 442.922c106.38 0 192.606-86.229 192.606-192.611s-86.226-192.612-192.606-192.612c-106.351 0-192.578 86.229-192.578 192.611s86.227 192.612 192.578 192.612z" fill="#d9e9fb" fill-rule="evenodd" data-original="#ccf5fc" style="" class=""/></g><g><path clip-rule="evenodd" d="m266.909 380.895 83.381-215.489c2.309-5.993-2.983-11.26-8.95-8.951l-215.51 83.384c-12.141 4.696-13.698 19.25-1.79 25.243l60.292 30.328 58.502-31.522-31.495 58.529 30.327 60.267c5.993 11.935 20.547 10.379 25.243-1.789z" fill="#3e72af" fill-rule="evenodd" data-original="#a0e5a5" style="" class=""/></g><g><path d="m501.988 204.486c-12.238-65.704-49.331-122.713-104.445-160.525-55.116-37.813-121.652-51.899-187.353-39.661-65.714 12.238-122.726 49.333-160.532 104.453-37.806 55.117-51.887 121.664-39.65 187.378 5.699 30.667 16.842 59.526 33.135 85.837-3.722 36.598-11.568 70.006-36.058 112.107-1.64 2.82-1.802 6.263-.433 9.224 1.368 2.961 4.096 5.068 7.306 5.646 11.45 2.061 23.901 3.052 36.862 3.052 40.204-.001 85.272-9.541 120.252-26.283 41.734 15.106 86.835 18.778 130.734 10.606 65.714-12.237 122.726-49.333 160.532-104.452 37.807-55.117 51.888-121.664 39.65-187.382zm-203.842 272.172c-41.721 7.766-84.619 3.908-124.054-11.159-2.632-1.005-5.567-.854-8.082.417-37.957 19.195-92.127 29.072-134.447 25.221 22.707-43.287 28.8-78.701 31.822-110.655.209-2.219-.328-4.445-1.528-6.323-15.915-24.922-26.744-52.403-32.186-81.686-23.243-124.816 59.38-245.269 184.181-268.51 60.45-11.26 121.665 1.698 172.376 36.49 50.71 34.79 84.838 87.243 96.098 147.695 23.243 124.816-59.38 245.27-184.18 268.51z" fill="#3e72af" data-original="#000000" style="" class=""/><path d="m119.546 274.016 60.291 30.328c2.917 1.468 6.365 1.418 9.237-.13l29.157-15.71-15.699 29.175c-1.546 2.872-1.594 6.319-.127 9.233l30.323 60.26c4.283 8.529 12.263 13.7 21.012 13.699.359 0 .72-.009 1.081-.026 9.496-.461 17.702-6.726 21.413-16.342l83.386-215.503c2.511-6.516 1.117-13.512-3.636-18.258s-11.746-6.131-18.254-3.613l-215.508 83.383c-9.607 3.716-15.861 11.921-16.323 21.412-.445 9.166 4.783 17.631 13.647 22.092zm9.893-24.851 209.01-80.868-80.869 208.998c-.984 2.55-2.571 3.519-3.728 3.575-1.65.049-2.731-1.642-3.254-2.68l-27.987-55.617 29.028-53.945c2.093-3.889 1.387-8.689-1.736-11.812-3.125-3.122-7.925-3.823-11.813-1.73l-53.918 29.052-55.637-27.987c-1.027-.517-2.738-1.627-2.659-3.254.056-1.16 1.022-2.749 3.563-3.732z" fill="#3e72af" data-original="#000000" style="" class=""/><path d="m278.556 48.965c-44.735-4.984-90.382 5.178-128.519 28.617-4.705 2.892-6.175 9.051-3.283 13.756 2.893 4.704 9.05 6.177 13.756 3.283 72.205-44.377 164.565-33.456 224.602 26.558 71.202 71.203 71.202 187.06.002 258.262-71.208 71.181-187.048 71.182-258.229.001-60.033-60.034-70.965-152.397-26.585-224.608 2.892-4.706 1.422-10.864-3.283-13.756-4.705-2.893-10.865-1.421-13.756 3.283-23.439 38.14-33.602 83.782-28.613 128.522 5.14 46.096 25.229 87.833 58.095 120.701 39.493 39.493 91.358 59.238 143.245 59.233 51.873-.005 103.768-19.749 143.267-59.233 38.272-38.273 59.35-89.156 59.35-143.274 0-54.117-21.077-105-59.352-143.274-32.399-32.386-75.263-53.009-120.697-58.071z" fill="#3e72af" data-original="#000000" style="" class=""/><path d="m119.814 124.108c2.56 0 5.118-.977 7.071-2.929l.028-.028c3.905-3.905 3.891-10.223-.015-14.128s-10.251-3.891-14.156.014-3.905 10.237 0 14.143c1.954 1.951 4.512 2.928 7.072 2.928z" fill="#3e72af" data-original="#000000" style="" class=""/></g></g></g></svg>
