<?xml version="1.0"?>
<svg xmlns="http://www.w3.org/2000/svg" xmlns:xlink="http://www.w3.org/1999/xlink" xmlns:svgjs="http://svgjs.com/svgjs" version="1.1" width="512" height="512" x="0" y="0" viewBox="0 0 512 512" style="enable-background:new 0 0 512 512" xml:space="preserve" class=""><g><path xmlns="http://www.w3.org/2000/svg" d="M16,256a56.063,56.063,0,0,0,56,56H248a8,8,0,0,0,4.8-14.4L240,288a40.191,40.191,0,0,1-16-32,56.063,56.063,0,0,0-56-56H72A56.063,56.063,0,0,0,16,256Zm56-40h96a40.045,40.045,0,0,1,40,40,56.32,56.32,0,0,0,16.818,40H72a40,40,0,0,1,0-80Z" fill="#3e72af" data-original="#000000" style="" class=""/><path xmlns="http://www.w3.org/2000/svg" d="M464,272a80.091,80.091,0,0,0-80-80H352a80.091,80.091,0,0,0-80,80,56.063,56.063,0,0,0,56,56h80A56.063,56.063,0,0,0,464,272Zm-56,40H328a40.045,40.045,0,0,1-40-40,64.072,64.072,0,0,1,64-64h32a64.072,64.072,0,0,1,64,64A40.045,40.045,0,0,1,408,312Z" fill="#3e72af" data-original="#000000" style="" class=""/><path xmlns="http://www.w3.org/2000/svg" d="M400,232H336a32,32,0,0,0,0,64h64a32,32,0,0,0,0-64Zm0,48H336a16,16,0,0,1,0-32h64a16,16,0,0,1,0,32Z" fill="#3e72af" data-original="#000000" style="" class=""/><path xmlns="http://www.w3.org/2000/svg" d="M404.015,344h-72.03a40,40,0,0,0-39.726,44.674l10.133,86.13A24.005,24.005,0,0,0,326.228,496h83.544a24.005,24.005,0,0,0,23.836-21.2l10.133-86.13A40,40,0,0,0,404.015,344Zm23.835,42.805-10.133,86.13A8,8,0,0,1,409.772,480H326.228a8,8,0,0,1-7.945-7.065l-10.133-86.13A24,24,0,0,1,331.985,360h72.03a24,24,0,0,1,23.835,26.805Z" fill="#3e72af" data-original="#000000" style="" class=""/><path xmlns="http://www.w3.org/2000/svg" d="M240,384v30.5a88.129,88.129,0,0,0,2.445,20.6L254.1,483.516c.054.221.116.44.189.657A17.3,17.3,0,0,0,288,478.7V384a24,24,0,0,0-48,0Zm32,0v94.7a1.3,1.3,0,0,1-2.458.583L258,431.359a72.059,72.059,0,0,1-2-16.856V384a8,8,0,0,1,16,0Z" fill="#3e72af" data-original="#000000" style="" class=""/><path xmlns="http://www.w3.org/2000/svg" d="M472,360a24.027,24.027,0,0,0-24,24v94.7a17.3,17.3,0,0,0,33.708,5.471c.073-.217.135-.436.189-.657l11.658-48.411A88.129,88.129,0,0,0,496,414.5V384A24.027,24.027,0,0,0,472,360Zm8,54.5a72.059,72.059,0,0,1-2,16.856l-11.541,47.926A1.3,1.3,0,0,1,464,478.7V384a8,8,0,0,1,16,0Z" fill="#3e72af" data-original="#000000" style="" class=""/><circle xmlns="http://www.w3.org/2000/svg" cx="336" cy="264" r="8" fill="#3e72af" data-original="#000000" style="" class=""/><circle xmlns="http://www.w3.org/2000/svg" cx="400" cy="264" r="8" fill="#3e72af" data-original="#000000" style="" class=""/><path xmlns="http://www.w3.org/2000/svg" d="M96,16a80,80,0,1,0,80,80A80.091,80.091,0,0,0,96,16ZM72,155.313V136a24,24,0,0,1,48,0v19.313a63.79,63.79,0,0,1-48,0ZM80,80A16,16,0,1,1,96,96,16.019,16.019,0,0,1,80,80Zm56,65.907V136a39.994,39.994,0,0,0-17.632-33.146,32,32,0,1,0-44.736,0A39.994,39.994,0,0,0,56,136v9.907a64,64,0,1,1,80,0Z" fill="#3e72af" data-original="#000000" style="" class=""/><path xmlns="http://www.w3.org/2000/svg" d="M440,16H280a56.063,56.063,0,0,0-56,56,40.191,40.191,0,0,1-16,32l-12.8,9.6A8,8,0,0,0,200,128H440a56,56,0,0,0,0-112Zm0,96H223.183A56.317,56.317,0,0,0,240,72a40.045,40.045,0,0,1,40-40H440a40,40,0,0,1,0,80Z" fill="#3e72af" data-original="#000000" style="" class=""/></g></svg>
