<?xml version="1.0"?>
<svg xmlns="http://www.w3.org/2000/svg" xmlns:xlink="http://www.w3.org/1999/xlink" xmlns:svgjs="http://svgjs.com/svgjs" version="1.1" width="512" height="512" x="0" y="0" viewBox="0 0 512 512" style="enable-background:new 0 0 512 512" xml:space="preserve" class=""><g><g xmlns="http://www.w3.org/2000/svg"><g><path clip-rule="evenodd" d="m171.237 74.6c-3.146-14.938-10.516-29.14-22.109-40.733-15.93-15.93-36.764-23.867-57.626-23.867-20.834 0-41.696 7.937-57.597 23.867-31.832 31.804-31.832 83.394 0 115.226 2.664 2.636 5.442 5.102 8.362 7.313 0-19.899 11.962-37.133 29.054-44.9-7.341-5.896-12.018-14.938-12.018-25.086 0-17.801 14.428-32.229 32.2-32.229 17.801 0 32.228 14.428 32.228 32.229 0 10.148-4.705 19.19-12.018 25.086 17.092 7.767 29.025 25.001 29.025 44.9 2.92-2.211 5.726-4.677 8.39-7.313 20.21-20.239 27.58-48.443 22.109-74.493z" fill="#ffffff" fill-rule="evenodd" data-original="#66e0f7" style="" class=""/></g><g><path clip-rule="evenodd" d="m123.731 86.421c0-17.801-14.428-32.229-32.228-32.229-17.772 0-32.2 14.428-32.2 32.229 0 10.148 4.677 19.19 12.018 25.114 5.527 4.45 12.529 7.115 20.182 7.115s14.683-2.665 20.21-7.115c7.313-5.924 12.018-14.967 12.018-25.114z" fill="#ffdcd5" fill-rule="evenodd" data-original="#ffdcd5" style="" class=""/></g><g><path clip-rule="evenodd" d="m140.738 156.407c0-19.899-11.933-37.133-29.025-44.872-5.527 4.45-12.557 7.115-20.21 7.115s-14.654-2.665-20.182-7.143c-17.092 7.767-29.054 25.001-29.054 44.9 9.779 7.427 20.862 12.359 32.37 14.797 5.556 1.162 11.225 1.757 16.865 1.757 17.376 0 34.723-5.528 49.236-16.554z" fill="#ffcd69" fill-rule="evenodd" data-original="#ffcd69" style="" class=""/></g><g><path clip-rule="evenodd" d="m388.333 86.421c0-17.801 14.399-32.229 32.2-32.229s32.228 14.428 32.228 32.229c0 10.148-4.705 19.19-12.018 25.086 17.064 7.738 28.997 24.944 29.025 44.815 2.92-2.211 5.697-4.649 8.333-7.285 31.803-31.804 31.803-83.337 0-115.141-15.902-15.902-36.735-23.839-57.569-23.839s-41.667 7.937-57.569 23.839c-11.593 11.593-18.935 25.823-22.081 40.761-5.471 25.993 1.899 54.169 22.081 74.38 2.664 2.636 5.442 5.074 8.333 7.285.028-19.87 11.99-37.076 29.054-44.815-7.34-5.896-12.017-14.939-12.017-25.086z" fill="#ffffff" fill-rule="evenodd" data-original="#66e0f7" style="" class=""/></g><g><path clip-rule="evenodd" d="m469.768 156.322c-.028-19.87-11.962-37.076-29.025-44.815-5.527 4.479-12.557 7.143-20.21 7.143s-14.654-2.665-20.182-7.143c-17.064 7.738-29.025 24.944-29.054 44.815 14.513 11.027 31.888 16.554 49.236 16.554 5.641 0 11.281-.567 16.837-1.729 11.508-2.438 22.619-7.37 32.398-14.825z" fill="#faf7f5" fill-rule="evenodd" data-original="#faf7f5" style="" class=""/></g><g><path clip-rule="evenodd" d="m452.761 86.421c0-17.801-14.428-32.229-32.228-32.229-17.801 0-32.2 14.428-32.2 32.229 0 10.148 4.677 19.19 12.018 25.114 5.527 4.45 12.529 7.115 20.182 7.115s14.683-2.665 20.21-7.115c7.313-5.924 12.018-14.967 12.018-25.114z" fill="#ffdcd5" fill-rule="evenodd" data-original="#ffdcd5" style="" class=""/></g><g><path clip-rule="evenodd" d="m171.237 437.371c5.471-26.05-1.899-54.254-22.109-74.465-15.93-15.93-36.764-23.867-57.626-23.867-5.641 0-11.281.595-16.837 1.757-14.938 3.146-29.167 10.516-40.76 22.11-31.832 31.804-31.832 83.394 0 115.226 2.664 2.665 5.442 5.102 8.362 7.313 0-19.899 11.962-37.133 29.054-44.872-7.341-5.924-12.018-14.967-12.018-25.114 0-17.801 14.428-32.229 32.2-32.229 17.801 0 32.228 14.428 32.228 32.229 0 10.148-4.705 19.19-12.018 25.114 17.092 7.738 29.025 24.973 29.025 44.872 2.92-2.211 5.726-4.649 8.39-7.313 11.593-11.593 18.963-25.822 22.109-40.761z" fill="#ffffff" fill-rule="evenodd" data-original="#66e0f7" style="" class=""/></g><g><path clip-rule="evenodd" d="m111.713 440.574c7.313-5.924 12.018-14.967 12.018-25.114 0-17.801-14.428-32.229-32.228-32.229-17.772 0-32.2 14.428-32.2 32.229 0 10.148 4.677 19.19 12.018 25.114 5.527 4.45 12.529 7.115 20.182 7.115s14.682-2.664 20.21-7.115z" fill="#ffdcd5" fill-rule="evenodd" data-original="#ffdcd5" style="" class=""/></g><g><path clip-rule="evenodd" d="m140.738 485.446c0-19.899-11.933-37.133-29.025-44.872-5.527 4.45-12.557 7.115-20.21 7.115s-14.654-2.665-20.182-7.115c-17.092 7.738-29.054 24.973-29.054 44.872 14.513 11.027 31.888 16.554 49.235 16.554 17.376 0 34.723-5.527 49.236-16.554z" fill="#ff7d97" fill-rule="evenodd" data-original="#ff7d97" style="" class=""/></g><g><path clip-rule="evenodd" d="m478.159 478.133c31.803-31.832 31.803-83.422 0-115.226-11.593-11.593-25.822-18.963-40.76-22.11-5.556-1.162-11.196-1.757-16.865-1.757-20.834 0-41.696 7.937-57.597 23.867-20.238 20.211-27.608 48.415-22.109 74.465 3.146 14.938 10.516 29.168 22.109 40.761 2.664 2.665 5.442 5.102 8.362 7.313 0-19.899 11.962-37.133 29.054-44.872-7.341-5.924-12.018-14.967-12.018-25.114 0-17.801 14.399-32.229 32.2-32.229s32.228 14.428 32.228 32.229c0 10.148-4.705 19.19-12.018 25.114 17.064 7.738 29.025 24.973 29.025 44.872 2.918-2.211 5.724-4.649 8.389-7.313z" fill="#ffffff" fill-rule="evenodd" data-original="#66e0f7" style="" class=""/></g><g><path clip-rule="evenodd" d="m452.761 415.46c0-17.801-14.428-32.229-32.228-32.229-17.801 0-32.2 14.428-32.2 32.229 0 10.148 4.677 19.19 12.018 25.114 5.499 4.45 12.529 7.115 20.182 7.115s14.683-2.665 20.21-7.115c7.313-5.924 12.018-14.966 12.018-25.114z" fill="#ffdcd5" fill-rule="evenodd" data-original="#ffdcd5" style="" class=""/></g><g><path clip-rule="evenodd" d="m469.768 485.446c0-19.899-11.962-37.133-29.025-44.872-5.527 4.45-12.557 7.115-20.21 7.115s-14.683-2.665-20.182-7.115c-17.092 7.738-29.054 24.973-29.054 44.872 14.513 11.027 31.889 16.554 49.236 16.554 17.376 0 34.723-5.527 49.235-16.554z" fill="#ffffff" fill-rule="evenodd" data-original="#66e0f7" style="" class=""/></g><g><path clip-rule="evenodd" d="m358.996 302.53v-89.12c0-8.334-6.831-15.165-15.165-15.165h-175.627c-8.333 0-15.136 6.831-15.136 15.165v89.12c0 8.305 6.803 15.137 15.136 15.137h55.698l32.115 34.61 32.115-34.61h55.698c8.334 0 15.166-6.803 15.166-15.137z" fill="#faf7f5" fill-rule="evenodd" data-original="#faf7f5" style="" class=""/></g><g><path d="m219.54 327.667 29.147 31.412c1.892 2.039 4.548 3.198 7.33 3.198s5.438-1.159 7.33-3.198l29.148-31.412h51.335c13.876 0 25.165-11.276 25.165-25.137v-89.12c0-13.876-11.289-25.165-25.165-25.165h-175.625c-13.86 0-25.137 11.289-25.137 25.165v89.12c0 13.86 11.276 25.137 25.137 25.137zm-56.472-25.137v-89.12c0-2.8 2.353-5.165 5.137-5.165h175.626c2.8 0 5.165 2.365 5.165 5.165v89.12c0 2.784-2.365 5.137-5.165 5.137h-55.698c-2.782 0-5.438 1.159-7.33 3.198l-24.785 26.71-24.784-26.71c-1.892-2.039-4.548-3.198-7.33-3.198h-55.698c-2.785 0-5.138-2.353-5.138-5.137z" fill="#3e72af" data-original="#000000" style="" class=""/><path d="m309.817 267.97c5.522 0 10-4.478 10-10v-.057c0-5.522-4.478-9.972-10-9.972s-10 4.506-10 10.028 4.478 10.001 10 10.001z" fill="#3e72af" data-original="#000000" style="" class=""/><path d="m256.017 267.97c5.522 0 10-4.478 10-10v-.057c0-5.522-4.478-9.972-10-9.972s-10 4.506-10 10.028 4.478 10.001 10 10.001z" fill="#3e72af" data-original="#000000" style="" class=""/><path d="m202.247 267.97c5.522 0 10-4.478 10-10v-.057c0-5.522-4.478-9.972-10-9.972s-10 4.506-10 10.028 4.477 10.001 10 10.001z" fill="#3e72af" data-original="#000000" style="" class=""/><path d="m451.135 334.264c9.994-24.842 15.056-51.118 15.056-78.279 0-27.146-5.063-53.415-15.059-78.256 12.669-4.488 24.293-11.779 34.101-21.568 35.647-35.682 35.646-93.714-.003-129.365-17.28-17.279-40.257-26.796-64.697-26.796-24.453 0-47.422 9.519-64.666 26.793-9.798 9.79-17.094 21.413-21.582 34.094-24.87-10.01-51.143-15.08-78.268-15.08-27.173 0-53.463 5.067-78.316 15.072-4.397-12.454-11.56-24.14-21.502-34.083-17.279-17.279-40.255-26.796-64.696-26.796-24.454 0-47.423 9.519-64.666 26.793-17.285 17.27-26.805 40.24-26.805 64.677 0 24.435 9.519 47.41 26.802 64.695 9.79 9.789 21.407 17.081 34.078 21.568-4.051 10.114-7.329 20.554-9.768 31.171-1.236 5.383 2.125 10.748 7.508 11.984.753.173 1.506.256 2.247.256 4.557 0 8.674-3.134 9.737-7.764 2.439-10.618 5.813-21.036 10.026-31.079 3.573.42 7.188.659 10.841.659 24.409 0 47.383-9.515 64.699-26.8 20.576-20.595 29.25-48.634 26.073-75.519 23.326-9.837 48.093-14.835 73.743-14.835 25.601 0 50.353 5.001 73.7 14.844-.418 3.566-.656 7.173-.656 10.819 0 24.435 9.519 47.41 26.802 64.695 17.281 17.279 40.247 26.796 64.669 26.796 3.652 0 7.265-.239 10.838-.659 9.826 23.315 14.82 48.061 14.82 73.683 0 25.639-4.993 50.395-14.82 73.711-3.573-.419-7.186-.657-10.839-.657-24.452 0-47.421 9.519-64.666 26.793-17.285 17.271-26.805 40.241-26.805 64.677 0 3.652.239 7.266.658 10.839-23.316 9.825-48.069 14.818-73.703 14.818-25.649 0-50.416-4.998-73.743-14.835 3.175-26.888-5.499-54.918-26.076-75.495-17.28-17.279-40.256-26.796-64.696-26.796-3.643 0-7.247.237-10.811.654-4.219-10.024-7.594-20.406-10.03-30.969-1.241-5.382-6.611-8.745-11.991-7.497-5.382 1.241-8.738 6.609-7.497 11.991 2.434 10.557 5.711 20.951 9.76 31.034-12.691 4.486-24.316 11.782-34.097 21.58-17.283 17.272-26.803 40.241-26.803 64.677 0 24.435 9.519 47.41 26.802 64.695 17.279 17.279 40.245 26.796 64.669 26.796 24.41 0 47.385-9.515 64.699-26.8 9.944-9.953 17.106-21.646 21.503-34.106 24.852 10.005 51.141 15.071 78.313 15.071 27.156 0 53.431-5.061 78.272-15.055 4.488 12.678 11.782 24.301 21.574 34.094 17.28 17.279 40.246 26.796 64.669 26.796 24.41 0 47.385-9.515 64.7-26.8 35.647-35.681 35.646-93.714-.003-129.365-9.792-9.791-21.416-17.084-34.095-21.571zm-359.632-171.303c-4.598 0-9.127-.442-13.546-1.286-.778-.272-1.571-.43-2.364-.504-8.185-1.854-15.947-5.132-22.987-9.722 1.498-11.603 8.174-22.013 18.133-28.286 6.135 3.486 13.219 5.487 20.764 5.487 7.553 0 14.643-2.003 20.784-5.491 9.95 6.27 16.619 16.684 18.114 28.295-11.492 7.481-24.89 11.507-38.898 11.507zm-22.201-76.54c0-12.258 9.959-22.229 22.2-22.229 12.257 0 22.229 9.972 22.229 22.229s-9.972 22.229-22.229 22.229c-12.241-.001-22.2-9.972-22.2-22.229zm77.882 49.881c-3.906-10.746-10.882-20.223-20.095-27.19 4.197-6.559 6.642-14.343 6.642-22.691 0-23.285-18.943-42.229-42.229-42.229-23.27 0-42.2 18.944-42.2 42.229 0 8.349 2.443 16.132 6.638 22.691-9.218 6.965-16.198 16.436-20.109 27.173-10.231-12.665-15.8-28.312-15.8-44.816 0-19.091 7.437-37.036 20.95-50.538 13.475-13.497 31.416-20.931 50.522-20.931 19.099 0 37.053 7.436 50.554 20.938 26.026 26.027 27.727 67.317 5.127 95.364zm-55.681 355.698c-14.026 0-27.429-4.031-38.913-11.523 1.502-11.612 8.199-22.013 18.17-28.264 6.131 3.479 13.207 5.476 20.744 5.476 7.545 0 14.628-1.999 20.765-5.48 9.961 6.248 16.651 16.653 18.15 28.273-11.497 7.488-24.9 11.518-38.916 11.518zm-22.201-76.54c0-12.258 9.959-22.229 22.2-22.229 12.257 0 22.229 9.972 22.229 22.229s-9.972 22.229-22.229 22.229c-12.241 0-22.2-9.971-22.2-22.229zm77.885 49.876c-3.907-10.749-10.875-20.233-20.096-27.188 4.196-6.559 6.64-14.341 6.64-22.688 0-23.285-18.943-42.229-42.229-42.229-23.27 0-42.2 18.944-42.2 42.229 0 8.347 2.443 16.129 6.635 22.688-9.224 6.953-16.197 16.432-20.109 27.173-10.229-12.665-15.796-28.309-15.796-44.812 0-19.091 7.437-37.035 20.95-50.538 13.475-13.498 31.416-20.932 50.521-20.932 19.098 0 37.052 7.436 50.554 20.938 26.024 26.025 27.726 67.313 5.13 95.359zm217.675-329.05c-10.231-12.665-15.8-28.312-15.8-44.816 0-19.091 7.437-37.036 20.95-50.538 13.475-13.498 31.416-20.932 50.521-20.932 19.099 0 37.053 7.436 50.555 20.938 26.026 26.027 27.727 67.32 5.125 95.367-3.907-10.743-10.871-20.233-20.088-27.202 4.194-6.557 6.637-14.338 6.637-22.683 0-23.285-18.943-42.229-42.229-42.229-23.27 0-42.2 18.944-42.2 42.229 0 8.343 2.44 16.122 6.63 22.678-9.222 6.966-16.19 16.449-20.101 27.188zm77.899-49.865c0 12.257-9.972 22.229-22.229 22.229-12.241 0-22.2-9.972-22.2-22.229 0-12.258 9.959-22.229 22.2-22.229 12.258-.001 22.229 9.971 22.229 22.229zm-22.228 76.54c-14.018 0-27.416-4.028-38.897-11.513 1.499-11.603 8.173-22.011 18.137-28.283 6.135 3.484 13.216 5.485 20.76 5.485 7.55 0 14.637-2.001 20.777-5.487 9.956 6.276 16.625 16.687 18.121 28.291-11.493 7.481-24.89 11.507-38.898 11.507zm0 329.039c-14.019 0-27.416-4.028-38.897-11.513 1.499-11.615 8.18-22.022 18.153-28.274 6.131 3.479 13.207 5.477 20.744 5.477 7.543 0 14.625-1.998 20.761-5.478 9.965 6.256 16.641 16.665 18.137 28.282-11.492 7.48-24.89 11.506-38.898 11.506zm-22.2-76.54c0-12.258 9.959-22.229 22.2-22.229 12.257 0 22.229 9.972 22.229 22.229s-9.972 22.229-22.229 22.229c-12.241 0-22.2-9.971-22.2-22.229zm77.881 49.883c-3.907-10.747-10.874-20.232-20.095-27.191 4.197-6.56 6.643-14.343 6.643-22.692 0-23.285-18.943-42.229-42.229-42.229-23.27 0-42.2 18.944-42.2 42.229 0 8.347 2.443 16.129 6.636 22.688-9.225 6.954-16.196 16.434-20.108 27.176-10.23-12.665-15.799-28.311-15.799-44.815 0-19.091 7.437-37.035 20.95-50.537 13.476-13.499 31.417-20.933 50.521-20.933 19.098 0 37.052 7.437 50.555 20.938 26.026 26.027 27.726 67.319 5.126 95.366z" fill="#3e72af" data-original="#000000" style="" class=""/><path d="m65.844 256.043v-.058c0-5.522-4.478-9.971-10-9.971s-10 4.506-10 10.028 4.478 10 10 10 10-4.477 10-9.999z" fill="#3e72af" data-original="#000000" style="" class=""/></g></g></g></svg>
