<svg id="Capa_1" enable-background="new 0 0 497 497" height="512" viewBox="0 0 497 497" width="512" xmlns="http://www.w3.org/2000/svg"><g><path d="m248.5 0c-137.243 0-248.5 111.257-248.5 248.5 0 49.673 14.583 95.937 39.689 134.759l-38.505 92.959c-5.114 12.346 7.252 24.712 19.598 19.598l92.959-38.505c38.822 25.106 85.086 39.689 134.759 39.689 137.243 0 248.5-111.257 248.5-248.5s-111.257-248.5-248.5-248.5z" fill="#c7e3ff"/><path d="m248.5 30v437c120.674 0 218.5-97.826 218.5-218.5s-97.826-218.5-218.5-218.5z" fill="#fff5de"/><path d="m437 248.5c0-120.674-84.394-218.5-188.5-218.5-120.674 0-218.5 97.826-218.5 218.5s97.826 218.5 218.5 218.5c104.106 0 188.5-97.826 188.5-218.5z" fill="#fff"/><path d="m248.5 90v317c87.537 0 158.5-70.963 158.5-158.5s-70.963-158.5-158.5-158.5z" fill="#ffbb6e"/><path d="m377 248.5c0-87.537-57.531-158.5-128.5-158.5-87.537 0-158.5 70.963-158.5 158.5s70.963 158.5 158.5 158.5c70.969 0 128.5-70.963 128.5-158.5z" fill="#ffd478"/><path d="m313.222 248.995c10.56-1.54 19.42 8.15 16.73 18.47-4.47 17.13-14.2 32.14-27.37 43.18l-54.09-5.209 54.11-54.931c1.75-.23 3.51-.47 5.26-.73z" fill="#e3222e"/><path d="m189.133 249.775-5.36-.78c-10.56-1.54-19.42 8.15-16.73 18.47 4.47 17.13 14.2 32.14 27.36 43.18l94.91-9.14c7.75-13.78 12.65-31.51 13.29-51-37.67 5.01-75.851 4.76-113.47-.73z" fill="#f33"/><path d="m289.312 301.505-40.82 28.82c20.6 0 39.46-7.39 54.09-19.68-4.11-3.45-8.55-6.52-13.27-9.14z" fill="#ff5f43"/><path d="m289.312 301.505c-9.93 17.66-24.54 28.82-40.82 28.82-20.59 0-39.46-7.39-54.09-19.68 14.63-12.29 33.5-19.69 54.09-19.69 14.81 0 28.73 3.83 40.82 10.55z" fill="#ff8053"/><g fill="#2d5093"><circle cx="323.5" cy="203.825" r="15"/><circle cx="173.5" cy="203.825" r="15"/></g></g></svg>