<svg id="flat" height="512" viewBox="0 0 128 128" width="512" xmlns="http://www.w3.org/2000/svg"><path d="m74.571 87.948-.424-19.116-2.981-3.475-.924-4.91h-12.046l-.924 4.91-2.323 3.962-.973 18.629z" fill="#e2b48a"/><path d="m87.666 79a10.4 10.4 0 0 0 -5.956-8.607l-5.81-2.728-3.188-1.5-1.699-2.065.1.119s-.488 1.764-1.248 5.915h-11.692a30.012 30.012 0 0 1 -.673-5.944l.1-.039-1.989 2.012-9.278 4.226a10.4 10.4 0 0 0 -5.959 8.611l-.879 11.247h49.051z" fill="#dbe2eb"/><g opacity=".2"><path d="m57.473 64.256a21.833 21.833 0 0 0 .4 4.417l-3.773 1.766a10.376 10.376 0 0 0 -5.953 8.6l-.883 11.251h-7.8l.874-11.251a10.4 10.4 0 0 1 5.963-8.6l9.318-4.276 1.882-2.029z" fill="#bac2d3"/></g><path d="m65.703 70.163h-4.528l-.862 2.011 2.598 3.307-1.51 14.762h2.893 3.241l-1.358-14.898 2.058-3.383z" fill="#c76da5"/><path d="m70.858 63.72-6.558 6.411 5.272 3.623a.577.577 0 0 0 .878-.3l2.261-7.287z" fill="#d1ccec"/><path d="m55.609 66.163 2.74 7.165a.576.576 0 0 0 .863.271l5.088-3.468-6.7-6.514z" fill="#d1ccec"/><path d="m74.288 40.76-9.992.716-9.991-.716.822 4.35.1 6.11a19.055 19.055 0 0 0 .663 5.66c.672 2.3 2.952 5.939 6.147 7.328a5.75 5.75 0 0 0 4.527 0c3.195-1.389 5.474-5.026 6.147-7.328a19.035 19.035 0 0 0 .662-5.66l.1-6.11z" fill="#e8c79c"/><path d="m72.988 51.22s.313-3.737 1.827-3.722 1.552 1.469 1.081 2.638a24.119 24.119 0 0 0 -1.021 2.942c-.039.319-.55 2.162-2.241 1.063s.354-2.764.354-2.764" fill="#e8c79c"/><path d="m55.559 51.22s-.312-3.737-1.827-3.722-1.552 1.469-1.081 2.638a23.765 23.765 0 0 1 1.021 2.942c.039.319.551 2.162 2.241 1.063s-.354-2.764-.354-2.764" fill="#e8c79c"/><path d="m65.085 33.094c-7.742-.834-12.434 5.19-11.816 9.788a69.432 69.432 0 0 0 1.994 8.338 12.122 12.122 0 0 1 1.037-4.634 1.037 1.037 0 0 0 .03-1.058 2.087 2.087 0 0 1 .09-2.382c1.1-1.458 7.627.677 7.627.677s4.686.4 7.194-.879a1.29 1.29 0 0 1 1.871.741 5.666 5.666 0 0 1 -.225 2.691l.578 4.844s2.254-5.261 2.427-8.907-3.064-8.386-10.807-9.219z" fill="#43567c"/><path d="m64 10.98a53.02 53.02 0 1 0 53.02 53.02 53.012 53.012 0 0 0 -53.02-53.02zm0 96.87a43.85 43.85 0 1 1 43.85-43.85 43.843 43.843 0 0 1 -43.85 43.85z" fill="#43567c"/><g fill="#384868"><path d="m99.418 61.426h28.582v5.148h-28.582z"/><path d="m0 61.426h28.582v5.148h-28.582z"/><path d="m49.709 111.135h28.582v5.148h-28.582z" transform="matrix(0 1 -1 0 177.709 49.709)"/><path d="m49.709 11.717h28.582v5.148h-28.582z" transform="matrix(0 1 -1 0 78.291 -49.709)"/></g></svg>