<?xml version="1.0"?>
<svg xmlns="http://www.w3.org/2000/svg" xmlns:xlink="http://www.w3.org/1999/xlink" xmlns:svgjs="http://svgjs.com/svgjs" version="1.1" width="512" height="512" x="0" y="0" viewBox="0 0 64 64" style="enable-background:new 0 0 512 512" xml:space="preserve" class=""><g><g xmlns="http://www.w3.org/2000/svg" fill="#c4a2fc"><path d="m52.922 16.949a24.87 24.87 0 0 0 -29.392-.31 1 1 0 0 0 -.127 1.522l3.6 3.6a1 1 0 0 0 1.251.132 17.877 17.877 0 0 1 19.919.268 1 1 0 0 0 1.274-.117l3.585-3.585a1 1 0 0 0 -.11-1.51z" fill="#a2bdfc" data-original="#c4a2fc" style="" class=""/><path d="m53.393 27.661a18.062 18.062 0 0 1 -.26 19.111 1 1 0 0 0 .132 1.25l3.6 3.6a1 1 0 0 0 1.521-.126 25.034 25.034 0 0 0 .3-28.53 1 1 0 0 0 -1.534-.145l-3.612 3.613a1 1 0 0 0 -.147 1.227z" fill="#a2bdfc" data-original="#c4a2fc" style="" class=""/><path d="m52.621 55.864-3.6-3.6a1 1 0 0 0 -1.25-.132 18.062 18.062 0 0 1 -19.111.26 1 1 0 0 0 -1.227.147l-3.613 3.615a1 1 0 0 0 .145 1.534 25.034 25.034 0 0 0 28.53-.3 1 1 0 0 0 .126-1.524z" fill="#a2bdfc" data-original="#c4a2fc" style="" class=""/><path d="m23.16 47.172a17.879 17.879 0 0 1 -.268-19.919 1.033 1.033 0 0 0 -.132-1.253l-3.6-3.6a1 1 0 0 0 -1.522.127 24.87 24.87 0 0 0 .31 29.392 1 1 0 0 0 1.509.109l3.585-3.585a1.074 1.074 0 0 0 .118-1.271z" fill="#a2bdfc" data-original="#c4a2fc" style="" class=""/><path d="m44.126 25.537a12.988 12.988 0 0 0 -11.717-.251 1 1 0 0 0 -.272 1.608l3.938 3.938a1 1 0 0 0 .887.277 5.906 5.906 0 0 1 2.6.108 1 1 0 0 0 .969-.257l3.833-3.833a1 1 0 0 0 -.238-1.59z" fill="#a2bdfc" data-original="#c4a2fc" style="" class=""/><path d="m43.916 38.061a1 1 0 0 0 .277.889l3.938 3.938a1 1 0 0 0 1.609-.275 12.975 12.975 0 0 0 .244-10.68 1 1 0 0 0 -1.627-.316l-4.087 4.083a1 1 0 0 0 -.287.811 5.344 5.344 0 0 1 -.067 1.55z" fill="#a2bdfc" data-original="#c4a2fc" style="" class=""/><path d="m32.217 38.56a5.906 5.906 0 0 1 -.108-2.6 1 1 0 0 0 -.277-.887l-3.938-3.938a1.008 1.008 0 0 0 -1.608.272 13 13 0 0 0 .206 11.619v.008a1.018 1.018 0 0 0 1.631.326l3.833-3.833a1 1 0 0 0 .261-.967z" fill="#a2bdfc" data-original="#c4a2fc" style="" class=""/><path d="m32.933 48.984a12.975 12.975 0 0 0 10.68-.244 1 1 0 0 0 .275-1.609l-3.938-3.938a1 1 0 0 0 -.889-.277 5.639 5.639 0 0 1 -1.567.072 1 1 0 0 0 -.8.29l-4.08 4.079a1 1 0 0 0 .319 1.627z" fill="#a2bdfc" data-original="#c4a2fc" style="" class=""/></g><path xmlns="http://www.w3.org/2000/svg" d="m1.319 26.269a1 1 0 0 0 .681 1.731h3.627a20.964 20.964 0 0 0 8.588 12.342l-5 10.219a1 1 0 0 0 .9 1.439h5a1 1 0 0 0 .88-.525l4.443-8.242a20.616 20.616 0 0 0 11.227-.024l4.46 8.266a1 1 0 0 0 .875.525h5a1 1 0 0 0 .9-1.44l-5.026-10.26a20.99 20.99 0 1 0 -32.253-22.3h-3.621a1 1 0 0 0 -.682 1.731l3.505 3.269zm32.281 16.312.053-.023a20.457 20.457 0 0 0 2.447-1.148c.023-.013.047-.023.07-.036l4.23 8.626h-2.8zm-17.68-1.163a23.358 23.358 0 0 0 2.579 1.2l-3.984 7.382h-2.8zm-8.255-13.418h1.476a1 1 0 0 0 .814-.419l.519-.726a16.188 16.188 0 0 0 15.526 12.145 16 16 0 0 0 0-32 16.188 16.188 0 0 0 -15.526 12.145l-.519-.726a1 1 0 0 0 -.814-.419h-1.476a19 19 0 0 1 37.335 5c0 14.812-16.357 24.04-28.98 16.161a19.009 19.009 0 0 1 -8.355-11.161zm18.335-5a1 1 0 0 0 -1-1h-2.857a4 4 0 1 1 0 2h2.857a1 1 0 0 0 1-1zm-5.91-1h-3.03a9 9 0 1 1 0 2h3.031a6 6 0 1 0 0-2zm-5.039 0h-2.536l-.411-.575a14 14 0 1 1 0 3.15l.411-.575h2.537a11 11 0 1 0 0-2zm-10.512 4 2.432-2.267a1 1 0 0 0 0-1.466l-2.432-2.267h4.087l2.144 3-2.144 3z" fill="#151a6a" data-original="#151a6a" style="" class=""/></g></svg>
