<svg height="512" viewBox="0 0 512 512" width="512" xmlns="http://www.w3.org/2000/svg"><g><path d="m296 368a40 40 0 1 0 -40 40 40.045 40.045 0 0 0 40-40zm-40 24a24 24 0 1 1 24-24 24.028 24.028 0 0 1 -24 24z"/><path d="m290 408h-68a38.043 38.043 0 0 0 -38 38v50a8 8 0 0 0 8 8h128a8 8 0 0 0 8-8v-50a38.043 38.043 0 0 0 -38-38zm22 80h-16v-32a8 8 0 0 0 -16 0v32h-48v-32a8 8 0 0 0 -16 0v32h-16v-42a22.025 22.025 0 0 1 22-22h68a22.025 22.025 0 0 1 22 22z"/><path d="m296 48a40 40 0 1 0 -40 40 40.045 40.045 0 0 0 40-40zm-40 24a24 24 0 1 1 24-24 24.028 24.028 0 0 1 -24 24z"/><path d="m290 88h-68a38.043 38.043 0 0 0 -38 38v50a8 8 0 0 0 8 8h128a8 8 0 0 0 8-8v-50a38.043 38.043 0 0 0 -38-38zm22 80h-16v-32a8 8 0 0 0 -16 0v32h-48v-32a8 8 0 0 0 -16 0v32h-16v-42a22.025 22.025 0 0 1 22-22h68a22.025 22.025 0 0 1 22 22z"/><path d="m120 208a40 40 0 1 0 -40 40 40.045 40.045 0 0 0 40-40zm-40 24a24 24 0 1 1 24-24 24.028 24.028 0 0 1 -24 24z"/><path d="m144 344a8 8 0 0 0 8-8v-50a38.043 38.043 0 0 0 -38-38h-68a38.043 38.043 0 0 0 -38 38v50a8 8 0 0 0 8 8zm-120-58a22.025 22.025 0 0 1 22-22h68a22.025 22.025 0 0 1 22 22v42h-16v-32a8 8 0 0 0 -16 0v32h-48v-32a8 8 0 0 0 -16 0v32h-16z"/><path d="m472 208a40 40 0 1 0 -40 40 40.045 40.045 0 0 0 40-40zm-40 24a24 24 0 1 1 24-24 24.028 24.028 0 0 1 -24 24z"/><path d="m466 248h-68a38.043 38.043 0 0 0 -38 38v50a8 8 0 0 0 8 8h128a8 8 0 0 0 8-8v-50a38.043 38.043 0 0 0 -38-38zm22 80h-16v-32a8 8 0 0 0 -16 0v32h-48v-32a8 8 0 0 0 -16 0v32h-16v-42a22.025 22.025 0 0 1 22-22h68a22.025 22.025 0 0 1 22 22z"/><path d="m156.166 420.037a192.08 192.08 0 0 1 -53.77-48.823 8 8 0 1 0 -12.796 9.611 208.016 208.016 0 0 0 58.23 52.872 8 8 0 0 0 8.332-13.66z"/><path d="m420.819 369.6a8 8 0 0 0 -11.2 1.591 192.071 192.071 0 0 1 -53.784 48.842 8 8 0 1 0 8.332 13.66 208.028 208.028 0 0 0 58.245-52.892 8 8 0 0 0 -1.593-11.201z"/><path d="m325.119 76.814a192.175 192.175 0 0 1 84.5 63.991 8 8 0 0 0 12.793-9.61 208.167 208.167 0 0 0 -91.53-69.306 8 8 0 1 0 -5.762 14.925z"/><path d="m91.181 142.4a8 8 0 0 0 11.2-1.591 192.175 192.175 0 0 1 84.5-63.991 8 8 0 1 0 -5.762-14.925 208.167 208.167 0 0 0 -91.53 69.307 8 8 0 0 0 1.592 11.2z"/><path d="m256 288a32 32 0 1 0 -32-32 32.036 32.036 0 0 0 32 32zm0-48a16 16 0 1 1 -16 16 16.019 16.019 0 0 1 16-16z"/></g></svg>