<svg xmlns="http://www.w3.org/2000/svg" width="256" height="256"><path fill-opacity=".016" d="M0 128.004v128.004l128.25-.254 128.25-.254.254-127.75L257.008 0H0v128.004m.485.496c0 70.4.119 99.053.265 63.672.146-35.38.146-92.98 0-128C.604 29.153.485 58.1.485 128.5" fill="#1976D2" fill-rule="evenodd"/><path fill-opacity=".103" d="M108.5 4.53c-42.814 7.871-79.487 38.124-95.026 78.393-11.702 30.324-10.929 66.743 2.011 94.751 1.933 4.184 3.515 8.262 3.515 9.062 0 .8-4.324 14.713-9.609 30.917-5.285 16.205-9.447 29.613-9.25 29.797.198.184 8.684-1.435 18.859-3.597 10.175-2.162 24.486-5.183 31.802-6.713l13.303-2.782 9.411 4.852c10.872 5.606 14.466 6.97 27.484 10.43 12.947 3.441 36.145 4.34 49.961 1.934 26.37-4.59 49.22-16.584 68.587-36.001 10.752-10.778 16.825-19.169 23.367-32.281 23.378-46.857 14.704-103.213-21.794-141.599C204.589 24.306 184.896 12.727 161 6.344c-8.03-2.145-12.207-2.595-27-2.911-12.531-.267-19.772.044-25.5 1.097m4.5 39.369c-37.161 8.313-64.528 38.605-67.901 75.159-1.557 16.871 1.077 31.457 8.414 46.594 11.356 23.429 29.87 38.284 57.487 46.127 8.044 2.285 31.39 2.179 39.998-.181 8.464-2.32 17.153-5.984 24.009-10.123l5.508-3.325 14.492 3.326c7.971 1.829 14.576 3.25 14.677 3.158.101-.093-1.586-5.931-3.75-12.973-2.164-7.043-3.934-13.428-3.934-14.189 0-.761 1.279-3.552 2.841-6.203 9.059-15.364 13.265-34.844 11.177-51.769-3.873-31.394-22.24-57.204-49.504-69.566-16.222-7.356-37.089-9.709-53.514-6.035m-7.345 60.56c-4.885 1.741-8.105 4.773-10.646 10.023-2.483 5.13-2.523 9.805-.127 15.018 1.96 4.262 31.722 36.803 33.2 36.299 1.205-.411 29.78-30.659 31.628-33.48 2.456-3.747 3.267-9.329 2.128-14.64-1.946-9.072-12.207-15.958-21.252-14.261-1.922.36-5.739 2.166-8.482 4.012-4.985 3.355-4.988 3.355-6.796 1.322-2.439-2.744-9.126-5.713-12.808-5.686-1.65.012-4.73.639-6.845 1.393" fill="#1976D2" fill-rule="evenodd"/><path fill-opacity=".427" d="M113.597 4.074C93.563 6.833 72.33 15.616 55.101 28.271 34.245 43.591 16.495 70.075 9.238 96.706 6.759 105.802 6.567 107.96 6.535 127c-.042 24.939 1.618 33.543 10.035 52l3.421 7.5-9.821 30C4.769 233 .672 246.634 1.066 246.797c.735.305 16.826-2.948 45.872-9.274l16.437-3.579 11.063 5.445c23.032 11.338 46.51 15.475 71.062 12.523 52.898-6.36 95.835-45.653 107.54-98.412 2.779-12.527 3.094-34.693.668-47C243.506 54.738 206.666 16.827 155.5 5.436c-8.492-1.891-32.418-2.669-41.903-1.362m-1.516 39.477c-13.973 3.172-29.427 11.365-40.246 21.337-11.989 11.05-21.353 26.759-25.402 42.612-2.63 10.294-2.423 31.285.412 42 6.208 23.455 22.539 43.781 44.136 54.936 12.381 6.395 21.121 8.646 36.024 9.28 18.265.777 32.085-2.557 47.113-11.365 3.145-1.843 6.422-3.351 7.281-3.351s7.442 1.404 14.629 3.119c7.187 1.716 13.322 2.864 13.634 2.552.487-.487-.665-4.624-6.761-24.284-.842-2.715-.455-4.06 3.031-10.522 6.876-12.749 9.693-22.351 10.666-36.365 2.804-40.39-24.178-77.879-64.118-89.083-8.28-2.323-31.763-2.826-40.399-.866m-9.291 62.496c-7.743 4.089-11.296 16.606-6.998 24.65.939 1.758 8.458 10.451 16.708 19.318l15 16.122 15.265-15.818C158.835 133.666 162 129.031 162 122.152c0-10.58-7.717-18.152-18.5-18.152-5.484 0-9.233 1.396-12.743 4.744l-2.744 2.617-2.256-2.063c-6.084-5.564-15.944-6.959-22.967-3.251" fill="#1976D2" fill-rule="evenodd"/><path fill-opacity=".186" d="M118.5 3.975C98.472 5.91 78.691 13.021 60.519 24.819 51.427 30.722 33.694 48.431 27.293 58 3.095 94.177-.747 137.841 16.676 178.658l3.483 8.159-9.58 29.465C5.311 232.487 1 245.971 1 246.244c0 .59 3.059.022 25.5-4.737 9.35-1.983 21.523-4.557 27.051-5.721l10.05-2.117 11.45 5.573c21.244 10.34 44.037 14.744 66.116 12.773 20.44-1.825 40.03-8.638 57.919-20.144 12.33-7.93 29.307-25.088 36.765-37.156C256.545 161.228 260.724 123.05 247.75 86c-3.797-10.843-6.617-16.448-13.586-27C209.206 21.207 163.787-.4 118.5 3.975m.039 38.137c-27.636 4.027-52.676 22.013-65.601 47.123-6.148 11.945-8.903 23.662-8.923 37.95-.033 23.621 7.747 43.208 23.87 60.096 15.088 15.803 31.814 24.151 53.83 26.867 18.25 2.25 41.293-3.297 55.589-13.383l2.803-1.978 11.697 2.697c6.433 1.483 13.128 3.061 14.879 3.507 3.898.993 4.361.599 3.315-2.816-.45-1.471-2.417-7.804-4.371-14.073l-3.552-11.399 2.022-2.839c3.547-4.981 8.613-17.095 10.792-25.804 2.604-10.41 2.865-27.685.568-37.59-3.885-16.75-10.983-30.021-22.375-41.83-20.278-21.022-47.018-30.538-74.543-26.528M106.5 104.718c-6.017 1.462-12.436 10.099-12.472 16.782-.041 7.486 1.742 10.224 17.621 27.047 8.541 9.049 15.89 16.453 16.33 16.453 1.739 0 30.379-31.577 32.123-35.417 2.353-5.18 2.353-9.984.002-15.162-4.779-10.521-18.542-13.485-28.359-6.106l-4.245 3.191-3-2.772c-4.36-4.028-11.444-5.609-18-4.016" fill="#1976D2" fill-rule="evenodd"/></svg>